<?xml version="1.0" encoding="utf-8"?>
<!-- Generator: Adobe Illustrator 24.2.1, SVG Export Plug-In . SVG Version: 6.00 Build 0)  -->
<svg version="1.1" id="Layer_1" xmlns="http://www.w3.org/2000/svg" xmlns:xlink="http://www.w3.org/1999/xlink" x="0px" y="0px"
	 viewBox="0 0 564.5 125.6" style="enable-background:new 0 0 564.5 125.6;" xml:space="preserve">
<style type="text/css">
	.st0{fill:#002C4A;}
	.st1{clip-path:url(#SVGID_2_);fill:url(#SVGID_3_);}
	.st2{fill:#00BFF3;}
</style>
<g>
	<path class="st0" d="M178,115.3c-0.1-0.5-0.3-1-0.5-1.4c-0.2-0.4-0.6-0.7-0.9-1c-0.4-0.3-0.8-0.5-1.2-0.6c-0.5-0.1-0.9-0.2-1.5-0.2
		c-0.9,0-1.6,0.2-2.3,0.5c-0.6,0.3-1.2,0.8-1.6,1.3c-0.4,0.6-0.7,1.2-0.9,1.9c-0.2,0.7-0.3,1.5-0.3,2.2c0,0.8,0.1,1.6,0.3,2.4
		c0.2,0.8,0.5,1.4,0.9,2c0.4,0.6,0.9,1,1.6,1.3c0.6,0.3,1.4,0.5,2.3,0.5c0.7,0,1.2-0.1,1.7-0.3c0.5-0.2,0.9-0.5,1.3-0.9
		c0.4-0.4,0.7-0.8,0.9-1.4c0.2-0.5,0.3-1.1,0.4-1.7h2c-0.2,1.9-0.8,3.3-1.9,4.4c-1.1,1.1-2.6,1.6-4.5,1.6c-1.2,0-2.2-0.2-3-0.6
		c-0.9-0.4-1.6-1-2.1-1.6s-1-1.5-1.3-2.5c-0.3-0.9-0.4-2-0.4-3c0-1.1,0.2-2.1,0.5-3c0.3-1,0.8-1.8,1.3-2.5c0.6-0.7,1.3-1.3,2.2-1.7
		c0.9-0.4,1.9-0.6,3-0.6c0.8,0,1.5,0.1,2.2,0.3c0.7,0.2,1.3,0.5,1.9,0.9c0.5,0.4,1,0.9,1.4,1.5c0.4,0.6,0.6,1.3,0.7,2.1H178z"/>
	<polygon class="st0" points="182.9,110.8 193.2,110.8 193.2,112.4 184.9,112.4 184.9,117.2 192.6,117.2 192.6,118.8 184.9,118.8 
		184.9,124 193.2,124 193.2,125.6 182.9,125.6 	"/>
	<polygon class="st0" points="195.9,110.8 198,110.8 205.8,122.8 205.9,122.8 205.9,110.8 207.8,110.8 207.8,125.6 205.6,125.6 
		197.8,113.7 197.8,113.7 197.8,125.6 195.9,125.6 	"/>
	<polygon class="st0" points="214.6,112.4 209.7,112.4 209.7,110.8 221.6,110.8 221.6,112.4 216.6,112.4 216.6,125.6 214.6,125.6 	
		"/>
	<path class="st0" d="M223.5,110.8h7c1.4,0,2.5,0.4,3.3,1.1c0.8,0.7,1.2,1.6,1.2,2.8c0,0.9-0.2,1.7-0.6,2.4c-0.4,0.7-1.1,1.1-2,1.4
		v0c0.4,0.1,0.8,0.2,1.1,0.4c0.3,0.2,0.5,0.4,0.7,0.7c0.2,0.3,0.3,0.6,0.4,0.9c0.1,0.3,0.1,0.7,0.2,1c0,0.4,0.1,0.7,0.1,1.1
		c0,0.4,0.1,0.8,0.1,1.1c0,0.4,0.1,0.7,0.2,1c0.1,0.3,0.3,0.6,0.5,0.9h-2.2c-0.1-0.2-0.2-0.4-0.3-0.6c0-0.3-0.1-0.6-0.1-0.9
		c0-0.3,0-0.7,0-1.1c0-0.4-0.1-0.7-0.1-1.1c-0.1-0.4-0.1-0.7-0.2-1c-0.1-0.3-0.2-0.6-0.4-0.9c-0.2-0.2-0.4-0.4-0.7-0.6
		c-0.3-0.1-0.7-0.2-1.2-0.2h-4.8v6.4h-2V110.8z M229.6,117.6c0.5,0,0.9,0,1.3-0.1c0.4-0.1,0.8-0.2,1.1-0.4c0.3-0.2,0.6-0.5,0.7-0.8
		c0.2-0.3,0.3-0.8,0.3-1.3c0-0.7-0.2-1.3-0.6-1.8c-0.4-0.5-1.1-0.7-2-0.7h-4.9v5.2H229.6z"/>
	<path class="st0" d="M237.2,118.2c0-1,0.1-2,0.4-2.9c0.3-0.9,0.7-1.8,1.3-2.5c0.6-0.7,1.3-1.3,2.2-1.7c0.9-0.4,1.9-0.6,3.1-0.6
		c1.2,0,2.2,0.2,3.1,0.6c0.9,0.4,1.6,1,2.2,1.7c0.6,0.7,1,1.6,1.3,2.5c0.3,0.9,0.4,1.9,0.4,2.9c0,1-0.1,2-0.4,2.9
		c-0.3,0.9-0.7,1.8-1.3,2.5c-0.6,0.7-1.3,1.3-2.2,1.7c-0.9,0.4-1.9,0.6-3.1,0.6c-1.2,0-2.2-0.2-3.1-0.6c-0.9-0.4-1.6-1-2.2-1.7
		c-0.6-0.7-1-1.6-1.3-2.5C237.4,120.2,237.2,119.2,237.2,118.2 M239.2,118.2c0,0.8,0.1,1.5,0.3,2.2c0.2,0.7,0.5,1.4,0.9,2
		c0.4,0.6,1,1.1,1.6,1.4c0.7,0.4,1.4,0.5,2.3,0.5c0.9,0,1.7-0.2,2.3-0.5c0.7-0.4,1.2-0.8,1.6-1.4c0.4-0.6,0.7-1.2,0.9-2
		c0.2-0.7,0.3-1.5,0.3-2.2s-0.1-1.5-0.3-2.2c-0.2-0.7-0.5-1.4-0.9-2c-0.4-0.6-1-1.1-1.6-1.4c-0.7-0.4-1.4-0.5-2.3-0.5
		c-0.9,0-1.7,0.2-2.3,0.5c-0.7,0.4-1.2,0.8-1.6,1.4c-0.4,0.6-0.7,1.2-0.9,2C239.3,116.7,239.2,117.5,239.2,118.2"/>
	<path class="st0" d="M260.2,110.8h5.1c2.3,0,4.1,0.6,5.3,1.7c1.2,1.2,1.9,2.9,1.9,5.3c0,1.2-0.1,2.4-0.4,3.3
		c-0.3,1-0.7,1.8-1.3,2.4c-0.6,0.7-1.3,1.2-2.2,1.5c-0.9,0.3-2,0.5-3.2,0.5h-5.1V110.8z M262.2,124h3.3c0.2,0,0.5,0,0.8-0.1
		c0.3,0,0.7-0.1,1.1-0.2c0.4-0.1,0.7-0.3,1.1-0.6c0.4-0.2,0.7-0.6,1-1c0.3-0.4,0.5-1,0.7-1.6c0.2-0.6,0.3-1.4,0.3-2.3
		c0-0.9-0.1-1.7-0.3-2.4c-0.2-0.7-0.5-1.3-0.9-1.8c-0.4-0.5-0.9-0.9-1.5-1.1c-0.6-0.3-1.4-0.4-2.3-0.4h-3.3V124z"/>
	<polygon class="st0" points="275.2,110.8 285.5,110.8 285.5,112.4 277.2,112.4 277.2,117.2 284.9,117.2 284.9,118.8 277.2,118.8 
		277.2,124 285.5,124 285.5,125.6 275.2,125.6 	"/>
	<path class="st0" d="M302.9,115.1c-0.1-1.1-0.5-1.8-1.2-2.3c-0.7-0.5-1.5-0.7-2.5-0.7c-0.4,0-0.8,0-1.2,0.1
		c-0.4,0.1-0.8,0.2-1.1,0.4c-0.3,0.2-0.6,0.5-0.8,0.8c-0.2,0.3-0.3,0.7-0.3,1.2c0,0.5,0.1,0.8,0.4,1.1c0.3,0.3,0.6,0.5,1.1,0.7
		c0.5,0.2,1,0.3,1.5,0.4c0.6,0.1,1.2,0.2,1.7,0.4c0.6,0.1,1.2,0.3,1.7,0.5c0.6,0.2,1.1,0.4,1.5,0.8s0.8,0.7,1.1,1.2
		c0.3,0.5,0.4,1.1,0.4,1.8c0,0.8-0.2,1.5-0.5,2c-0.4,0.6-0.8,1-1.4,1.4c-0.6,0.4-1.2,0.6-1.9,0.8c-0.7,0.2-1.4,0.2-2.1,0.2
		c-0.8,0-1.6-0.1-2.4-0.3c-0.7-0.2-1.4-0.5-2-1c-0.6-0.4-1-1-1.3-1.6c-0.3-0.7-0.5-1.4-0.5-2.3h1.9c0,0.6,0.1,1.2,0.4,1.6
		c0.2,0.5,0.6,0.8,1,1.1c0.4,0.3,0.9,0.5,1.4,0.6c0.5,0.1,1.1,0.2,1.6,0.2c0.4,0,0.9,0,1.3-0.1c0.5-0.1,0.9-0.2,1.2-0.4
		c0.4-0.2,0.7-0.5,0.9-0.8c0.2-0.3,0.3-0.8,0.3-1.3c0-0.5-0.1-0.9-0.4-1.2c-0.3-0.3-0.6-0.6-1.1-0.8c-0.4-0.2-1-0.4-1.5-0.5
		c-0.6-0.1-1.2-0.3-1.7-0.4c-0.6-0.1-1.2-0.3-1.7-0.4c-0.6-0.2-1.1-0.4-1.5-0.7c-0.5-0.3-0.8-0.7-1.1-1.1c-0.3-0.4-0.4-1-0.4-1.7
		c0-0.8,0.2-1.4,0.5-1.9c0.3-0.5,0.7-1,1.2-1.4c0.5-0.4,1.1-0.6,1.7-0.8c0.6-0.2,1.3-0.3,2-0.3c0.8,0,1.5,0.1,2.1,0.3
		c0.7,0.2,1.2,0.5,1.7,0.9c0.5,0.4,0.9,0.9,1.2,1.5c0.3,0.6,0.5,1.3,0.5,2.1H302.9z"/>
	<path class="st0" d="M307.2,118.2c0-1,0.1-2,0.4-2.9c0.3-0.9,0.7-1.8,1.3-2.5c0.6-0.7,1.3-1.3,2.2-1.7c0.9-0.4,1.9-0.6,3.1-0.6
		c1.2,0,2.2,0.2,3.1,0.6c0.9,0.4,1.6,1,2.2,1.7c0.6,0.7,1,1.6,1.3,2.5c0.3,0.9,0.4,1.9,0.4,2.9c0,1-0.1,2-0.4,2.9
		c-0.3,0.9-0.7,1.8-1.3,2.5c-0.6,0.7-1.3,1.3-2.2,1.7c-0.9,0.4-1.9,0.6-3.1,0.6c-1.2,0-2.2-0.2-3.1-0.6c-0.9-0.4-1.6-1-2.2-1.7
		c-0.6-0.7-1-1.6-1.3-2.5C307.4,120.2,307.2,119.2,307.2,118.2 M309.2,118.2c0,0.8,0.1,1.5,0.3,2.2c0.2,0.7,0.5,1.4,0.9,2
		c0.4,0.6,1,1.1,1.6,1.4c0.7,0.4,1.4,0.5,2.3,0.5c0.9,0,1.7-0.2,2.3-0.5c0.7-0.4,1.2-0.8,1.6-1.4c0.4-0.6,0.7-1.2,0.9-2
		c0.2-0.7,0.3-1.5,0.3-2.2s-0.1-1.5-0.3-2.2c-0.2-0.7-0.5-1.4-0.9-2c-0.4-0.6-1-1.1-1.6-1.4c-0.7-0.4-1.4-0.5-2.3-0.5
		c-0.9,0-1.7,0.2-2.3,0.5c-0.7,0.4-1.2,0.8-1.6,1.4c-0.4,0.6-0.7,1.2-0.9,2C309.3,116.7,309.2,117.5,309.2,118.2"/>
	<polygon class="st0" points="324.2,110.8 326.2,110.8 326.2,124 334,124 334,125.6 324.2,125.6 	"/>
	<path class="st0" d="M347.9,120.3c0,1.9-0.5,3.3-1.5,4.3c-1,1-2.5,1.4-4.3,1.4c-1,0-1.8-0.1-2.6-0.3c-0.8-0.2-1.4-0.6-1.9-1
		c-0.5-0.5-0.9-1.1-1.2-1.8c-0.3-0.7-0.4-1.6-0.4-2.6v-9.5h2v9.5c0,1.3,0.4,2.3,1.1,3c0.7,0.7,1.7,1,3,1c1.3,0,2.2-0.3,2.9-1
		c0.7-0.7,1-1.7,1-3v-9.5h2V120.3z"/>
	<path class="st0" d="M361.8,115.3c-0.1-0.5-0.3-1-0.5-1.4c-0.2-0.4-0.6-0.7-0.9-1c-0.4-0.3-0.8-0.5-1.2-0.6
		c-0.5-0.1-0.9-0.2-1.5-0.2c-0.9,0-1.6,0.2-2.3,0.5c-0.6,0.3-1.2,0.8-1.6,1.3c-0.4,0.6-0.7,1.2-0.9,1.9c-0.2,0.7-0.3,1.5-0.3,2.2
		c0,0.8,0.1,1.6,0.3,2.4c0.2,0.8,0.5,1.4,0.9,2c0.4,0.6,0.9,1,1.6,1.3c0.6,0.3,1.4,0.5,2.3,0.5c0.7,0,1.2-0.1,1.7-0.3
		c0.5-0.2,0.9-0.5,1.3-0.9c0.4-0.4,0.7-0.8,0.9-1.4c0.2-0.5,0.3-1.1,0.4-1.7h2c-0.2,1.9-0.8,3.3-1.9,4.4c-1.1,1.1-2.6,1.6-4.5,1.6
		c-1.2,0-2.2-0.2-3-0.6c-0.9-0.4-1.6-1-2.1-1.6s-1-1.5-1.3-2.5c-0.3-0.9-0.4-2-0.4-3c0-1.1,0.2-2.1,0.5-3c0.3-1,0.8-1.8,1.3-2.5
		c0.6-0.7,1.3-1.3,2.2-1.7c0.9-0.4,1.9-0.6,3-0.6c0.8,0,1.5,0.1,2.2,0.3c0.7,0.2,1.3,0.5,1.9,0.9c0.5,0.4,1,0.9,1.4,1.5
		c0.4,0.6,0.6,1.3,0.7,2.1H361.8z"/>
	<rect x="366.8" y="110.8" class="st0" width="2" height="14.9"/>
	<path class="st0" d="M371.6,118.2c0-1,0.1-2,0.4-2.9c0.3-0.9,0.7-1.8,1.3-2.5c0.6-0.7,1.3-1.3,2.2-1.7c0.9-0.4,1.9-0.6,3.1-0.6
		c1.2,0,2.2,0.2,3.1,0.6c0.9,0.4,1.6,1,2.2,1.7c0.6,0.7,1,1.6,1.3,2.5c0.3,0.9,0.4,1.9,0.4,2.9c0,1-0.1,2-0.4,2.9
		c-0.3,0.9-0.7,1.8-1.3,2.5s-1.3,1.3-2.2,1.7c-0.9,0.4-1.9,0.6-3.1,0.6c-1.2,0-2.2-0.2-3.1-0.6c-0.9-0.4-1.6-1-2.2-1.7
		c-0.6-0.7-1-1.6-1.3-2.5C371.7,120.2,371.6,119.2,371.6,118.2 M373.5,118.2c0,0.8,0.1,1.5,0.3,2.2c0.2,0.7,0.5,1.4,0.9,2
		c0.4,0.6,1,1.1,1.6,1.4c0.7,0.4,1.4,0.5,2.3,0.5c0.9,0,1.7-0.2,2.3-0.5c0.7-0.4,1.2-0.8,1.6-1.4c0.4-0.6,0.7-1.2,0.9-2
		c0.2-0.7,0.3-1.5,0.3-2.2s-0.1-1.5-0.3-2.2c-0.2-0.7-0.5-1.4-0.9-2c-0.4-0.6-1-1.1-1.6-1.4c-0.7-0.4-1.4-0.5-2.3-0.5
		c-0.9,0-1.7,0.2-2.3,0.5c-0.7,0.4-1.2,0.8-1.6,1.4c-0.4,0.6-0.7,1.2-0.9,2C373.6,116.7,373.5,117.5,373.5,118.2"/>
	<polygon class="st0" points="388.5,110.8 390.6,110.8 398.4,122.8 398.5,122.8 398.5,110.8 400.3,110.8 400.3,125.6 398.2,125.6 
		390.4,113.7 390.4,113.7 390.4,125.6 388.5,125.6 	"/>
	<polygon class="st0" points="403.8,110.8 414.1,110.8 414.1,112.4 405.8,112.4 405.8,117.2 413.5,117.2 413.5,118.8 405.8,118.8 
		405.8,124 414.2,124 414.2,125.6 403.8,125.6 	"/>
	<path class="st0" d="M425.4,115.1c-0.1-1.1-0.5-1.8-1.2-2.3c-0.7-0.5-1.5-0.7-2.5-0.7c-0.4,0-0.8,0-1.2,0.1
		c-0.4,0.1-0.8,0.2-1.1,0.4c-0.3,0.2-0.6,0.5-0.8,0.8c-0.2,0.3-0.3,0.7-0.3,1.2c0,0.5,0.1,0.8,0.4,1.1c0.3,0.3,0.6,0.5,1.1,0.7
		c0.5,0.2,1,0.3,1.5,0.4c0.6,0.1,1.2,0.2,1.7,0.4c0.6,0.1,1.2,0.3,1.7,0.5c0.6,0.2,1.1,0.4,1.5,0.8c0.4,0.3,0.8,0.7,1.1,1.2
		c0.3,0.5,0.4,1.1,0.4,1.8c0,0.8-0.2,1.5-0.5,2c-0.4,0.6-0.8,1-1.4,1.4c-0.6,0.4-1.2,0.6-1.9,0.8c-0.7,0.2-1.4,0.2-2.1,0.2
		c-0.8,0-1.6-0.1-2.4-0.3c-0.7-0.2-1.4-0.5-2-1c-0.6-0.4-1-1-1.3-1.6c-0.3-0.7-0.5-1.4-0.5-2.3h1.9c0,0.6,0.1,1.2,0.4,1.6
		c0.2,0.5,0.6,0.8,1,1.1c0.4,0.3,0.9,0.5,1.4,0.6c0.5,0.1,1.1,0.2,1.6,0.2c0.4,0,0.9,0,1.3-0.1c0.5-0.1,0.9-0.2,1.2-0.4
		c0.4-0.2,0.7-0.5,0.9-0.8c0.2-0.3,0.3-0.8,0.3-1.3c0-0.5-0.1-0.9-0.4-1.2c-0.3-0.3-0.6-0.6-1.1-0.8c-0.4-0.2-1-0.4-1.5-0.5
		c-0.6-0.1-1.2-0.3-1.7-0.4c-0.6-0.1-1.2-0.3-1.7-0.4c-0.6-0.2-1.1-0.4-1.5-0.7c-0.5-0.3-0.8-0.7-1.1-1.1c-0.3-0.4-0.4-1-0.4-1.7
		c0-0.8,0.2-1.4,0.5-1.9c0.3-0.5,0.7-1,1.2-1.4c0.5-0.4,1.1-0.6,1.7-0.8c0.6-0.2,1.3-0.3,2-0.3c0.8,0,1.5,0.1,2.1,0.3
		c0.7,0.2,1.2,0.5,1.7,0.9c0.5,0.4,0.9,0.9,1.2,1.5c0.3,0.6,0.5,1.3,0.5,2.1H425.4z"/>
	<rect x="436.8" y="110.8" class="st0" width="2" height="14.9"/>
	<polygon class="st0" points="442.4,110.8 444.5,110.8 452.3,122.8 452.3,122.8 452.3,110.8 454.2,110.8 454.2,125.6 452.1,125.6 
		444.3,113.7 444.2,113.7 444.2,125.6 442.4,125.6 	"/>
	<polygon class="st0" points="461.1,112.4 456.1,112.4 456.1,110.8 468,110.8 468,112.4 463.1,112.4 463.1,125.6 461.1,125.6 	"/>
	<polygon class="st0" points="470,110.8 480.2,110.8 480.2,112.4 471.9,112.4 471.9,117.2 479.7,117.2 479.7,118.8 471.9,118.8 
		471.9,124 480.3,124 480.3,125.6 470,125.6 	"/>
	<path class="st0" d="M494.1,123.8c-0.3,0.4-0.6,0.7-1,1c-0.4,0.3-0.8,0.5-1.2,0.7c-0.4,0.2-0.8,0.3-1.3,0.4
		c-0.4,0.1-0.9,0.1-1.3,0.1c-1.1,0-2.1-0.2-3-0.6c-0.9-0.4-1.6-1-2.2-1.7c-0.6-0.7-1.1-1.5-1.4-2.4c-0.3-0.9-0.5-1.8-0.5-2.8
		c0-1.1,0.1-2.1,0.4-3.1c0.3-1,0.7-1.8,1.3-2.6c0.6-0.7,1.3-1.3,2.2-1.8c0.9-0.4,1.9-0.7,3.1-0.7c0.8,0,1.6,0.1,2.3,0.3
		c0.7,0.2,1.4,0.5,1.9,0.9c0.6,0.4,1,0.9,1.4,1.5c0.4,0.6,0.6,1.4,0.8,2.2h-2c-0.1-0.6-0.3-1-0.5-1.5c-0.3-0.4-0.6-0.8-1-1
		c-0.4-0.3-0.8-0.5-1.3-0.6c-0.5-0.1-1-0.2-1.6-0.2c-0.9,0-1.7,0.2-2.3,0.5c-0.6,0.4-1.2,0.8-1.6,1.4c-0.4,0.6-0.7,1.3-0.9,2
		c-0.2,0.8-0.3,1.5-0.3,2.3c0,0.8,0.1,1.5,0.3,2.2c0.2,0.7,0.5,1.3,1,1.9c0.4,0.5,1,1,1.6,1.3c0.6,0.3,1.4,0.5,2.2,0.5
		c0.8,0,1.4-0.1,2.1-0.4c0.6-0.2,1.1-0.6,1.5-1c0.4-0.4,0.7-1,0.9-1.5c0.2-0.6,0.3-1.2,0.3-1.9h-4.7v-1.7h6.5v7.8h-1.2L494.1,123.8z
		"/>
	<path class="st0" d="M499.1,110.8h7c1.4,0,2.5,0.4,3.3,1.1c0.8,0.7,1.2,1.6,1.2,2.8c0,0.9-0.2,1.7-0.6,2.4c-0.4,0.7-1.1,1.1-2,1.4
		v0c0.4,0.1,0.8,0.2,1.1,0.4c0.3,0.2,0.5,0.4,0.7,0.7c0.2,0.3,0.3,0.6,0.4,0.9c0.1,0.3,0.1,0.7,0.2,1c0,0.4,0.1,0.7,0.1,1.1
		c0,0.4,0.1,0.8,0.1,1.1c0,0.4,0.1,0.7,0.2,1c0.1,0.3,0.3,0.6,0.5,0.9h-2.2c-0.1-0.2-0.2-0.4-0.3-0.6c0-0.3-0.1-0.6-0.1-0.9
		c0-0.3,0-0.7,0-1.1c0-0.4-0.1-0.7-0.1-1.1c-0.1-0.4-0.1-0.7-0.2-1c-0.1-0.3-0.2-0.6-0.4-0.9c-0.2-0.2-0.4-0.4-0.7-0.6
		c-0.3-0.1-0.7-0.2-1.2-0.2H501v6.4h-2V110.8z M505.2,117.6c0.5,0,0.9,0,1.3-0.1c0.4-0.1,0.8-0.2,1.1-0.4c0.3-0.2,0.6-0.5,0.7-0.8
		c0.2-0.3,0.3-0.8,0.3-1.3c0-0.7-0.2-1.3-0.6-1.8c-0.4-0.5-1.1-0.7-2-0.7H501v5.2H505.2z"/>
	<path class="st0" d="M517.7,110.8h2.2l5.8,14.9h-2.2l-1.6-4.5h-6.3l-1.7,4.5h-2L517.7,110.8z M516.2,119.5h5l-2.5-6.9h0
		L516.2,119.5z"/>
	<polygon class="st0" points="527.4,110.8 529.4,110.8 529.4,124 537.3,124 537.3,125.6 527.4,125.6 	"/>
	<polygon class="st0" points="539.3,110.8 549.5,110.8 549.5,112.4 541.3,112.4 541.3,117.2 549,117.2 549,118.8 541.3,118.8 
		541.3,124 549.6,124 549.6,125.6 539.3,125.6 	"/>
	<path class="st0" d="M560.9,115.1c-0.1-1.1-0.5-1.8-1.2-2.3c-0.7-0.5-1.5-0.7-2.5-0.7c-0.4,0-0.8,0-1.2,0.1
		c-0.4,0.1-0.8,0.2-1.1,0.4c-0.3,0.2-0.6,0.5-0.8,0.8c-0.2,0.3-0.3,0.7-0.3,1.2c0,0.5,0.1,0.8,0.4,1.1c0.3,0.3,0.6,0.5,1.1,0.7
		c0.5,0.2,1,0.3,1.5,0.4c0.6,0.1,1.2,0.2,1.7,0.4c0.6,0.1,1.2,0.3,1.7,0.5c0.6,0.2,1.1,0.4,1.5,0.8c0.4,0.3,0.8,0.7,1.1,1.2
		c0.3,0.5,0.4,1.1,0.4,1.8c0,0.8-0.2,1.5-0.5,2c-0.4,0.6-0.8,1-1.4,1.4c-0.6,0.4-1.2,0.6-1.9,0.8c-0.7,0.2-1.4,0.2-2.1,0.2
		c-0.8,0-1.6-0.1-2.4-0.3c-0.7-0.2-1.4-0.5-2-1c-0.6-0.4-1-1-1.3-1.6c-0.3-0.7-0.5-1.4-0.5-2.3h1.9c0,0.6,0.1,1.2,0.4,1.6
		c0.2,0.5,0.6,0.8,1,1.1c0.4,0.3,0.9,0.5,1.4,0.6c0.5,0.1,1.1,0.2,1.6,0.2c0.4,0,0.9,0,1.3-0.1c0.5-0.1,0.9-0.2,1.2-0.4
		c0.4-0.2,0.7-0.5,0.9-0.8c0.2-0.3,0.3-0.8,0.3-1.3c0-0.5-0.1-0.9-0.4-1.2c-0.3-0.3-0.6-0.6-1.1-0.8c-0.4-0.2-1-0.4-1.5-0.5
		c-0.6-0.1-1.2-0.3-1.7-0.4c-0.6-0.1-1.2-0.3-1.7-0.4c-0.6-0.2-1.1-0.4-1.5-0.7c-0.5-0.3-0.8-0.7-1.1-1.1c-0.3-0.4-0.4-1-0.4-1.7
		c0-0.8,0.2-1.4,0.5-1.9c0.3-0.5,0.7-1,1.2-1.4c0.5-0.4,1.1-0.6,1.7-0.8c0.6-0.2,1.3-0.3,2-0.3c0.8,0,1.5,0.1,2.1,0.3
		c0.7,0.2,1.2,0.5,1.7,0.9c0.5,0.4,0.9,0.9,1.2,1.5c0.3,0.6,0.5,1.3,0.5,2.1H560.9z"/>
	<rect x="167.9" y="4.8" class="st0" width="24.2" height="78.5"/>
	<path class="st0" d="M202.4,22.7h22.3v7.7h0.2c2.2-3,4.8-5.3,8-6.9c3.2-1.6,7.1-2.3,11.7-2.3c2.7,0,5.3,0.4,7.8,1.3
		c2.5,0.9,4.7,2.1,6.7,3.8c1.9,1.7,3.5,3.8,4.6,6.4c1.1,2.6,1.7,5.6,1.7,9.1v41.6h-23.1V51.5c0-1.7-0.1-3.3-0.2-4.8
		c-0.2-1.5-0.5-2.7-1.1-3.8c-0.5-1.1-1.3-1.9-2.3-2.5c-1-0.6-2.3-0.9-4-0.9c-1,0-2.1,0.2-3.2,0.5c-1.1,0.3-2.1,0.9-3,1.8
		c-0.9,0.9-1.6,2-2.2,3.6c-0.6,1.5-0.9,3.5-0.9,5.9v32h-23.1V22.7z"/>
	<path class="st0" d="M275.9,22.7h22.3v7.7h0.2c2.2-3,4.8-5.3,8-6.9c3.2-1.6,7.1-2.3,11.7-2.3c2.7,0,5.3,0.4,7.8,1.3
		c2.5,0.9,4.7,2.1,6.7,3.8c1.9,1.7,3.5,3.8,4.6,6.4c1.1,2.6,1.7,5.6,1.7,9.1v41.6h-23.1V51.5c0-1.7-0.1-3.3-0.2-4.8
		c-0.2-1.5-0.5-2.7-1.1-3.8c-0.5-1.1-1.3-1.9-2.3-2.5c-1-0.6-2.3-0.9-4-0.9c-1,0-2.1,0.2-3.2,0.5c-1.1,0.3-2.1,0.9-3,1.8
		c-0.9,0.9-1.6,2-2.2,3.6c-0.6,1.5-0.9,3.5-0.9,5.9v32h-23.1V22.7z"/>
	<path class="st0" d="M414,52.9c0,4.3-0.7,8.5-2,12.4c-1.4,4-3.4,7.4-6.2,10.4c-2.8,3-6.3,5.4-10.6,7.2c-4.3,1.8-9.3,2.7-15.2,2.7
		c-5.8,0-10.9-0.9-15.2-2.7c-4.3-1.8-7.8-4.2-10.6-7.2c-2.8-3-4.8-6.5-6.2-10.4c-1.4-4-2-8.1-2-12.4c0-4.3,0.7-8.4,2-12.4
		c1.4-3.9,3.4-7.4,6.2-10.4c2.8-3,6.3-5.4,10.6-7.2c4.3-1.8,9.3-2.7,15.2-2.7c5.8,0,10.9,0.9,15.2,2.7c4.3,1.8,7.8,4.2,10.6,7.2
		c2.8,3,4.8,6.5,6.2,10.4C413.3,44.5,414,48.6,414,52.9 M390.3,52.9c0-1.7-0.1-3.4-0.3-5.2c-0.2-1.8-0.7-3.4-1.4-4.9
		c-0.7-1.5-1.8-2.7-3.1-3.7c-1.4-1-3.2-1.5-5.4-1.5c-2.2,0-4,0.5-5.4,1.5c-1.4,1-2.4,2.2-3.1,3.7c-0.7,1.5-1.2,3.1-1.4,4.9
		c-0.2,1.8-0.3,3.5-0.3,5.2c0,1.7,0.1,3.4,0.3,5.2c0.2,1.8,0.7,3.5,1.4,5c0.7,1.5,1.8,2.8,3.1,3.8c1.4,1,3.2,1.5,5.4,1.5
		c2.2,0,4-0.5,5.4-1.5c1.4-1,2.4-2.3,3.1-3.8c0.7-1.5,1.2-3.2,1.4-5C390.2,56.4,390.3,54.6,390.3,52.9"/>
	<path class="st0" d="M421.8,4.8h43c5.1,0,9.3,0.6,12.6,1.9c3.3,1.3,5.8,2.9,7.7,4.9c1.9,2,3.1,4.1,3.8,6.4c0.7,2.3,1,4.5,1,6.4
		c0,4-0.9,7.1-2.6,9.5c-1.8,2.3-4.1,4.3-7,5.9c1.8,0.6,3.5,1.4,5.1,2.4c1.6,1,3.1,2.3,4.3,3.9c1.2,1.6,2.3,3.5,3,5.7
		c0.8,2.2,1.2,4.7,1.2,7.6c0,4-0.8,7.4-2.4,10.4c-1.6,3-3.6,5.4-6.2,7.4c-2.6,2-5.5,3.5-8.8,4.5c-3.3,1-6.7,1.5-10.1,1.5h-44.5V4.8z
		 M446,35.4h12.7c2.6,0,4.6-0.4,6-1.3c1.5-0.9,2.2-2.6,2.2-5.2c0-2-0.8-3.4-2.3-4.2c-1.5-0.8-3.5-1.2-6-1.2H446V35.4z M446,64.6
		h14.2c1.2,0,2.4-0.1,3.6-0.3c1.1-0.2,2.1-0.6,3-1.2c0.9-0.6,1.6-1.3,2.1-2.3c0.5-1,0.8-2.2,0.8-3.7c0-4.8-2.8-7.1-8.5-7.1H446V64.6
		z"/>
	<path class="st0" d="M561.7,69.8c0,2.3,0.1,4.6,0.4,7c0.3,2.4,1.1,4.6,2.4,6.5h-23.6c-0.3-0.9-0.5-1.8-0.7-2.9
		c-0.2-1.1-0.2-2-0.1-2.9h-0.2c-2.5,2.8-5.4,4.7-8.8,5.7c-3.4,1-6.9,1.5-10.7,1.5c-3,0-5.7-0.4-8.3-1.1c-2.6-0.7-4.8-1.8-6.8-3.3
		c-1.9-1.5-3.5-3.4-4.6-5.7c-1.1-2.3-1.7-5-1.7-8.2c0-3.2,0.6-5.9,1.7-8c1.1-2.1,2.6-3.9,4.6-5.4c1.9-1.4,4.1-2.5,6.5-3.3
		c2.4-0.8,4.9-1.4,7.4-1.9c2.5-0.5,5-0.8,7.5-1.1c2.5-0.3,4.7-0.6,6.6-1c1.6-0.3,3-0.8,4.3-1.5c1.3-0.7,2-2,2-3.9
		c0-2-0.8-3.5-2.4-4.3c-1.6-0.9-3.3-1.3-5.2-1.3c-1.8,0-3.2,0.2-4.3,0.6c-1.1,0.4-2,0.9-2.6,1.5c-0.7,0.6-1.1,1.3-1.3,2
		c-0.2,0.7-0.4,1.4-0.4,2h-21.5c0.2-4.3,1.2-7.7,3.2-10.3c1.9-2.6,4.4-4.6,7.4-6c3-1.4,6.2-2.3,9.9-2.8c3.6-0.5,7.2-0.7,10.8-0.7
		c7.2,0,12.8,0.7,16.7,2c3.9,1.4,6.7,3.2,8.5,5.4c1.8,2.3,2.8,4.8,3.1,7.6c0.3,2.8,0.4,5.7,0.4,8.6V69.8z M539.5,56.1
		c-1.4,0.7-2.9,1.3-4.4,1.7c-1.6,0.4-3.1,0.8-4.7,1.2c-2.6,0.6-4.5,1.4-5.8,2.2c-1.3,0.9-2,2.3-2,4.3c0,1.4,0.7,2.7,2,3.9
		c1.4,1.2,3.1,1.8,5.2,1.8c2.6,0,4.9-0.8,6.7-2.3c1.8-1.6,2.8-3.9,3-7.1V56.1z"/>
</g>
<g>
	<defs>
		
			<rect id="SVGID_1_" x="5.5" y="45.5" transform="matrix(0.7071 -0.7071 0.7071 0.7071 -36.0334 45.4609)" width="62.7" height="41.5"/>
	</defs>
	<clipPath id="SVGID_2_">
		<use xlink:href="#SVGID_1_"  style="overflow:visible;"/>
	</clipPath>
	
		<linearGradient id="SVGID_3_" gradientUnits="userSpaceOnUse" x1="-138.685" y1="360.6372" x2="-137.685" y2="360.6372" gradientTransform="matrix(42.2493 -42.2493 -42.2493 -42.2493 21111.5938 9464.8018)">
		<stop  offset="0" style="stop-color:#A6CE39"/>
		<stop  offset="0.5" style="stop-color:#A6CE39"/>
		<stop  offset="0.9995" style="stop-color:#6A8A22"/>
		<stop  offset="1" style="stop-color:#6A8A22"/>
	</linearGradient>
	<polygon class="st1" points="-36.9,66.2 36.9,-7.5 110.6,66.2 36.9,140 	"/>
</g>
<g>
	
		<rect x="75.1" y="-0.6" transform="matrix(0.7071 -0.7071 0.7071 0.7071 -8.3589 82.9097)" class="st2" width="41.5" height="104.3"/>
</g>
</svg>
